<svg viewBox="0 0 24 24" xmlns="http://www.w3.org/2000/svg">
    <path
        d="M0 6.97348V17.0295C0 18.8175 0.432 20.3054 1.26 21.4455C1.608 21.9495 2.052 22.3934 2.556 22.7415C3.54 23.4615 4.788 23.8814 6.264 23.9774V0.0374756C2.328 0.289476 0 2.84548 0 6.97348Z"
        />
    <path
        d="M22.7409 2.556C22.3929 2.052 21.9489 1.608 21.4449 1.26C20.3049 0.432 18.8169 0 17.0289 0H8.06494V24H17.0289C21.3969 24 24.0009 21.396 24.0009 17.028V6.972C24.0009 5.184 23.5689 3.696 22.7409 2.556ZM16.2009 14.436C16.5489 14.784 16.5489 15.36 16.2009 15.708C16.0209 15.888 15.7929 15.972 15.5649 15.972C15.3369 15.972 15.1089 15.888 14.9289 15.708L11.8569 12.636C11.5089 12.288 11.5089 11.712 11.8569 11.364L14.9289 8.292C15.2769 7.944 15.8529 7.944 16.2009 8.292C16.5489 8.64 16.5489 9.216 16.2009 9.564L13.7769 12L16.2009 14.436Z"
        />
</svg>