<svg width="24" height="24" viewBox="0 0 24 24" fill="none" xmlns="http://www.w3.org/2000/svg">
<path d="M6.39264 24L9.59509 24C13.5366 24 16 21.6 16 17.76L16 12.9L8.30179 12.9C7.79679 12.9 7.37801 12.492 7.37801 12C7.37801 11.508 7.79679 11.1 8.30179 11.1L16 11.1L16 6.24C16 2.4 13.5366 1.69199e-06 9.59509 1.34741e-06L6.40495 1.06852e-06C2.46347 7.23948e-07 4.6711e-05 2.4 4.63753e-05 6.24L4.53682e-05 17.76C-0.0122717 21.6 2.45115 24 6.39264 24Z" fill="#ADADAE"/>
<path d="M21.0761 12.9152L18.7095 15.4411C18.538 15.6242 18.458 15.856 18.458 16.0879C18.458 16.3197 18.538 16.5638 18.7095 16.7346C19.0411 17.0885 19.5899 17.0885 19.9214 16.7346L23.7513 12.6468C24.0829 12.2929 24.0829 11.7072 23.7513 11.3533L19.9214 7.26541C19.5899 6.91153 19.0411 6.91153 18.7095 7.26541C18.378 7.61928 18.378 8.20501 18.7095 8.55888L21.0761 11.0848L16 11.0848L16 12.9152L21.0761 12.9152Z" fill="#ADADAE"/>
</svg>
