<svg width="97" height="36" viewBox="0 0 97 36" fill="none" xmlns="http://www.w3.org/2000/svg">
<path d="M88.1055 35.2367C84.9293 35.1997 81.7459 35.2038 78.5697 35.2326C78.1555 34.0703 77.6049 32.94 77.1138 31.8065L74.9557 26.7168C74.7352 25.9005 74.1611 24.765 73.8105 23.9507L70.8588 17.0409C70.421 16.0299 70.0263 14.9274 69.4972 13.9648C69.4398 13.8608 69.3927 13.7991 69.2881 13.7352C68.8442 11.7278 67.4385 9.90871 65.7264 8.81232C63.5088 7.39475 60.6647 7.07046 58.1252 7.63976C58.0463 7.65829 57.9673 7.67785 57.8884 7.69741C57.8094 7.718 57.7315 7.73859 57.6536 7.76021C57.5746 7.78183 57.4967 7.8055 57.4188 7.82918C57.3419 7.85286 57.264 7.87757 57.1871 7.9033C57.1102 7.92904 57.0333 7.95581 56.9564 7.9836C56.8805 8.01037 56.8037 8.03919 56.7288 8.06905C56.6529 8.09787 56.5771 8.12876 56.5022 8.15964C56.4274 8.19155 56.3525 8.22347 56.2777 8.25641C56.2039 8.28935 56.1301 8.32333 56.0562 8.35833C55.9835 8.39333 55.9096 8.42936 55.8379 8.46539C55.7651 8.50245 55.6933 8.53951 55.6215 8.57863C55.5498 8.61672 55.478 8.65584 55.4073 8.69599C55.3365 8.73614 55.2668 8.77732 55.1971 8.8185C55.1274 8.86071 55.0577 8.90395 54.989 8.94718C54.9203 8.99042 54.8526 9.03469 54.7849 9.07999C54.7173 9.12528 54.6496 9.17161 54.583 9.21793C54.5163 9.26529 54.4507 9.31265 54.3851 9.36103C54.3205 9.40942 54.2549 9.45883 54.1913 9.50824C54.1267 9.55869 54.0632 9.60913 54.0006 9.66061C53.9371 9.71208 53.8745 9.76458 53.813 9.81811C53.7515 9.87062 53.691 9.92518 53.6305 9.97871C53.57 10.0333 53.5095 10.0889 53.4511 10.1455C53.3916 10.2011 53.3332 10.2577 53.2758 10.3153C53.2184 10.373 53.1609 10.4306 53.1046 10.4893C53.0482 10.548 52.9928 10.6077 52.9374 10.6674C52.8831 10.7282 52.8288 10.7889 52.7755 10.8507C52.7221 10.9114 52.6688 10.9742 52.6176 11.037C52.5653 11.0998 52.514 11.1626 52.4638 11.2264C52.4135 11.2913 52.3643 11.3551 52.3151 11.421C52.2659 11.4859 52.2187 11.5517 52.1706 11.6176C52.1234 11.6845 52.0773 11.7515 52.0321 11.8184C51.986 11.8863 51.9409 11.9543 51.8968 12.0232C50.3518 14.4682 50.0678 17.6493 50.6973 20.4402C51.2653 22.9572 52.9549 25.2869 55.1366 26.6448C57.4209 28.0675 60.5161 28.3486 63.0987 27.7309C63.4616 27.6444 63.8163 27.5342 64.1701 27.4159L65.0466 26.9989C65.0015 27.0627 64.8867 27.1966 64.8795 27.2758C64.8539 27.5466 64.9134 27.875 64.9267 28.1509C64.9646 28.8664 64.9954 29.5819 65.02 30.2984C65.0456 31.0972 65.0589 31.8971 65.0579 32.697C65.0559 33.2128 65.0005 33.8099 65.0897 34.3174C65.1041 34.3977 65.0989 34.3926 65.1912 34.4358C65.2158 34.4482 65.3235 34.4698 65.3532 34.4759C65.0128 34.5665 64.6714 34.6654 64.3269 34.7395C60.7611 35.5631 56.1772 35.1986 52.7406 33.9581C48.8467 32.5529 45.5926 29.7775 43.8271 25.9808C43.7635 25.8387 43.701 25.6966 43.6395 25.5525C43.579 25.4094 43.5195 25.2663 43.4621 25.1212C43.4047 24.977 43.3493 24.8309 43.295 24.6857C43.2407 24.5395 43.1894 24.3923 43.1381 24.2451C43.0879 24.0979 43.0397 23.9507 42.9925 23.8024C42.9454 23.6531 42.9003 23.5049 42.8572 23.3546C42.8142 23.2053 42.7721 23.055 42.7321 22.9047C42.6932 22.7544 42.6552 22.6031 42.6194 22.4518C42.5824 22.3004 42.5486 22.1491 42.5158 21.9967C42.484 21.8444 42.4533 21.692 42.4246 21.5386C42.3958 21.3852 42.3682 21.2329 42.3436 21.0784C42.3179 20.9251 42.2954 20.7706 42.2738 20.6172C42.2523 20.4628 42.2328 20.3084 42.2144 20.154C42.197 19.9985 42.1816 19.8441 42.1672 19.6887C42.1529 19.5342 42.1406 19.3788 42.1303 19.2233C42.1201 19.0679 42.1119 18.9124 42.1057 18.757C42.0985 18.6015 42.0944 18.4461 42.0914 18.2896C42.0883 18.1342 42.0872 17.9787 42.0883 17.8233C42.0893 17.6668 42.0924 17.5113 42.0965 17.3559C42.1016 17.2004 42.1078 17.045 42.116 16.8895C42.1242 16.7341 42.1344 16.5786 42.1467 16.4232C42.159 16.2677 42.1734 16.1133 42.1888 15.9579C42.2052 15.8034 42.2226 15.648 42.2421 15.4936C42.2615 15.3392 42.2831 15.1847 42.3056 15.0313C42.3292 14.8769 42.3538 14.7235 42.3815 14.5701C42.4082 14.4167 42.4369 14.2644 42.4676 14.111C42.4984 13.9586 42.5302 13.8063 42.565 13.6549C42.5988 13.5026 42.6347 13.3513 42.6727 13.1999C42.7106 13.0496 42.7506 12.8983 42.7916 12.749C42.8336 12.5987 42.8767 12.4494 42.9218 12.3002C42.9669 12.1509 43.013 12.0026 43.0623 11.8544C43.1104 11.7072 43.1607 11.56 43.213 11.4128C44.8206 7.01899 48.1249 3.62586 52.3377 1.68943C56.7514 -0.338622 62.7337 -0.394213 67.2694 1.3075C67.4385 1.3703 67.6077 1.43721 67.7748 1.50619C67.943 1.57516 68.1091 1.64722 68.2741 1.72134C68.4392 1.7965 68.6032 1.87371 68.7662 1.954C68.9282 2.03327 69.0902 2.11666 69.2502 2.20211C69.4101 2.28652 69.568 2.37506 69.7259 2.46565C69.8827 2.55624 70.0386 2.6489 70.1924 2.74464C70.3461 2.84038 70.4989 2.93921 70.6496 3.04009C70.8003 3.13995 70.949 3.24393 71.0966 3.34893C71.2443 3.45497 71.3898 3.56306 71.5334 3.67322C71.6779 3.7844 71.8194 3.89661 71.9599 4.01191C72.1003 4.12721 72.2387 4.24457 72.3751 4.36399C72.5115 4.48444 72.6458 4.60592 72.778 4.73048C72.9103 4.85402 73.0405 4.98064 73.1687 5.10933C73.2968 5.23698 73.4229 5.36772 73.547 5.50052C73.671 5.63333 73.793 5.76819 73.912 5.9051C74.0319 6.04099 74.1488 6.17997 74.2636 6.31998C76.0475 8.52098 77.2307 11.1307 78.379 13.7023L80.453 18.3277L88.1055 35.2367Z" fill="#010101"/>
<path d="M74.9565 26.7169C74.246 27.978 73.5232 29.1433 72.499 30.18C70.4413 32.2307 68.1386 33.639 65.354 34.476C65.3243 34.4698 65.2167 34.4482 65.192 34.4358C65.0998 34.3926 65.1049 34.3977 65.0905 34.3174C65.0013 33.8099 65.0567 33.2128 65.0588 32.697C65.0598 31.8971 65.0465 31.0972 65.0208 30.2984C64.9962 29.5819 64.9655 28.8664 64.9275 28.1509C64.9142 27.875 64.8547 27.5466 64.8804 27.2759C64.8875 27.1966 65.0024 27.0628 65.0475 26.9989C65.2166 26.8425 65.4976 26.7066 65.6924 26.5758C66.2347 26.2114 66.7248 25.8295 67.1585 25.3363C69.4601 22.7174 69.696 19.2635 69.4817 15.9321C69.4355 15.1981 69.3361 14.4693 69.2889 13.7353C69.3935 13.7991 69.4407 13.8609 69.4981 13.9648C70.0271 14.9274 70.4218 16.0299 70.8596 17.0409L73.8113 23.9507C74.1619 24.765 74.7361 25.9005 74.9565 26.7169Z" fill="url(#paint0_linear_21_33)"/>
<path d="M74.9568 26.7168C74.2463 27.9779 73.5235 29.1433 72.4992 30.18C72.491 29.8433 72.5556 29.4799 72.5813 29.1412C72.6735 27.9574 72.7668 26.8301 73.0939 25.6812C73.1595 25.4516 73.219 25.2066 73.3225 24.9915C73.4825 24.6589 73.8218 24.3336 73.8116 23.9507C74.1622 24.765 74.7363 25.9005 74.9568 26.7168Z" fill="#79358B"/>
<path d="M88.4742 0.0124212C88.6116 0.00624435 88.749 0.00212647 88.8864 0.001097C90.8825 -0.031846 92.8356 0.677458 94.272 2.08989C95.3916 3.19039 96.1513 4.71606 96.4465 6.25615C96.6895 7.52651 96.6352 8.86585 96.6434 10.1547C96.6547 12.0726 96.6526 13.9916 96.6383 15.9095L96.6557 35.2501C93.9419 35.2851 91.2209 35.213 88.505 35.2285C88.4691 30.7143 88.4599 26.199 88.4773 21.6848L88.4752 0.0134506L88.4742 0.0124212Z" fill="#010101"/>
<path d="M26.2994 7.99588L30.9253 7.99176V15.9846C30.913 17.3846 30.912 18.7847 30.9212 20.1848C31.397 19.6876 31.8399 19.1512 32.2992 18.6375L35.784 14.7461C36.2587 14.22 36.719 13.6796 37.2081 13.1669H38.9869C37.5505 14.8614 35.9849 16.4478 34.5383 18.1341C35.0304 18.9216 35.7061 19.6495 36.2782 20.3824L39.6646 24.7721C39.9342 25.0779 40.1741 25.4279 40.4253 25.7501C40.8774 26.3317 41.3378 26.9072 41.8032 27.4775L36.0506 27.4755C35.581 26.9659 35.1647 26.3657 34.7331 25.8222C33.9457 24.8308 33.143 23.8445 32.3689 22.8429C31.9403 22.288 31.4 21.5118 30.9243 21.0279L30.9315 27.46L26.1949 27.458V12.5122L26.1928 9.62141C26.1928 9.23433 26.1251 8.33766 26.2225 8.01853L26.3005 7.99588H26.2994Z" fill="#010101"/>
<path d="M8.04497 13.1051L15.5242 13.101L17.6198 13.0959C18.2134 13.0948 18.8347 13.0537 19.417 13.1803C20.1706 13.345 20.8995 13.765 21.4429 14.3106C22.1626 15.0344 22.6035 15.9321 22.8167 16.9275C23.0597 18.0631 22.9541 19.8739 22.9541 21.0866L22.9582 27.46H18.2892L18.2759 18.7631C18.2739 17.3702 18.2257 15.8518 17.2148 14.7749C16.7914 14.324 16.2849 14.0708 15.6646 14.0584C14.9828 14.045 14.3625 14.3168 13.8786 14.7935C13.2686 15.3936 12.9057 16.2193 12.7304 17.048C12.4833 18.2103 12.5909 19.9336 12.5919 21.1525L12.5837 27.458H8.04087C7.99781 24.9203 8.02857 22.3755 8.03062 19.8368C8.03164 17.5946 7.99884 15.3453 8.046 13.1041L8.04497 13.1051Z" fill="#010101"/>
<path d="M0.167969 13.5344H4.69034L4.67086 27.4549C4.24435 27.527 3.71225 27.4703 3.27652 27.4693L0.168994 27.4652V13.5334L0.167969 13.5344Z" fill="#010101"/>
<path d="M2.45024 7.72616C3.0295 7.69012 3.66413 7.91558 4.10806 8.28619C4.13985 8.31295 4.1706 8.33972 4.20034 8.36854C4.23109 8.39634 4.2598 8.42517 4.28851 8.45502C4.31721 8.48487 4.34489 8.51473 4.37258 8.54561C4.40026 8.5765 4.42691 8.60841 4.45255 8.64032C4.47818 8.67224 4.50278 8.70518 4.52739 8.73915C4.55097 8.77313 4.57455 8.8071 4.59711 8.84107C4.61966 8.87607 4.64119 8.91107 4.6617 8.94711C4.6822 8.98314 4.70168 9.01917 4.72116 9.05623C4.73961 9.09329 4.75807 9.13035 4.77447 9.16844C4.7919 9.20653 4.80728 9.24462 4.82266 9.28271C4.83804 9.3208 4.85137 9.35992 4.8647 9.39904C4.87802 9.43816 4.89033 9.47728 4.90058 9.51743C4.91186 9.55758 4.92211 9.59773 4.93134 9.63788C4.94056 9.67803 4.94877 9.71921 4.95594 9.75936C4.96312 9.80054 4.96927 9.84068 4.9744 9.88186C4.97952 9.92304 4.98362 9.96422 4.9867 10.0054C5.03796 10.6571 4.81036 11.2943 4.38693 11.7864C3.92352 12.3258 3.3422 12.5966 2.63991 12.6439C2.00938 12.6645 1.42294 12.508 0.92672 12.1055C0.895962 12.0808 0.867256 12.0551 0.837523 12.0283C0.808816 12.0015 0.78011 11.9748 0.752428 11.947C0.724746 11.9192 0.69809 11.8904 0.671433 11.8615C0.644777 11.8327 0.619146 11.8029 0.59454 11.772C0.569934 11.7421 0.545328 11.7102 0.522772 11.6793C0.499192 11.6474 0.476636 11.6155 0.455106 11.5825C0.433576 11.5496 0.412046 11.5167 0.392566 11.4827C0.372061 11.4487 0.353607 11.4147 0.335152 11.3797C0.316698 11.3447 0.299268 11.3097 0.282864 11.2747C0.26646 11.2397 0.250057 11.2037 0.235703 11.1666C0.22135 11.1296 0.206996 11.0935 0.193668 11.0565C0.18034 11.0194 0.168037 10.9824 0.156759 10.9443C0.145481 10.9062 0.135229 10.8691 0.126002 10.831C0.116774 10.7929 0.108572 10.7549 0.10037 10.7157C0.0931937 10.6776 0.0860169 10.6385 0.0808907 10.5994C0.0757644 10.5603 0.0706382 10.5212 0.0665372 10.482C-0.000103869 9.81392 0.183415 9.12726 0.617095 8.60944C1.08563 8.05044 1.73872 7.78278 2.45024 7.72101V7.72616Z" fill="#010101"/>
<defs>
<linearGradient id="paint0_linear_21_33" x1="64.1934" y1="24.3697" x2="73.2192" y2="23.613" gradientUnits="userSpaceOnUse">
<stop stop-color="#1D2547"/>
<stop offset="1" stop-color="#6A3B8F"/>
</linearGradient>
</defs>
</svg>
