<svg viewBox="0 0 15 14" fill="none" xmlns="http://www.w3.org/2000/svg">
<g clip-path="url(#clip0_41_169)">
<path d="M14.219 6.4585C13.9602 2.79632 10.5136 -0.280699 6.89803 0.0200993C4.87254 0.234877 3.20503 1.00249 1.89712 2.62264C0.400208 4.47674 0.0530588 6.6793 0.559432 8.65011C0.571346 8.69723 0.584344 8.74435 0.597342 8.79092C0.597342 8.79202 0.597883 8.79256 0.598425 8.79366C0.622796 8.88242 0.649333 8.97063 0.677495 9.0583C0.73436 9.23527 0.798266 9.41005 0.869213 9.58209C0.88221 9.61332 0.895208 9.64455 0.908747 9.67523C1.03277 9.96617 1.17629 10.2483 1.33822 10.5206C1.35392 10.548 1.37017 10.5749 1.38696 10.6017C1.41025 10.6401 1.43408 10.6784 1.45845 10.7162C1.47957 10.7491 1.50069 10.782 1.52235 10.8143C1.53752 10.8379 1.55322 10.8614 1.56947 10.8845C1.58572 10.9091 1.60251 10.9332 1.61929 10.9573C1.66858 11.0286 1.71949 11.0987 1.77148 11.1677C1.79531 11.1995 1.81914 11.2302 1.84296 11.2614C1.84567 11.2652 1.84838 11.2685 1.85163 11.2724C1.87383 11.3014 1.89712 11.3299 1.91987 11.3584C2.0011 11.4598 2.08559 11.5589 2.17278 11.6554C2.19715 11.6827 2.22153 11.7096 2.24644 11.7359C2.24644 11.7364 2.24752 11.737 2.24752 11.737C2.27947 11.7721 2.31251 11.8066 2.34555 11.8405C2.37371 11.8701 2.40295 11.8997 2.43166 11.9288C2.45819 11.9551 2.48419 11.9808 2.51127 12.0066C2.53726 12.0323 2.5638 12.0575 2.59034 12.0822C2.60225 12.0937 2.61417 12.1046 2.62608 12.1156C2.65045 12.1386 2.67482 12.1611 2.69974 12.1824C2.70786 12.1907 2.71598 12.1983 2.72465 12.2054C2.74577 12.2246 2.76743 12.2438 2.7891 12.2624C2.80968 12.28 2.83026 12.298 2.85138 12.3156C2.88279 12.343 2.9142 12.3693 2.94615 12.3945C2.96727 12.4126 2.9884 12.4301 3.01006 12.4471C3.02901 12.4624 3.04797 12.4772 3.06692 12.492C3.08967 12.5106 3.11296 12.5282 3.13679 12.5457C3.14762 12.5545 3.15845 12.5627 3.16928 12.5703C3.1904 12.5873 3.21207 12.6032 3.23373 12.6186C3.26297 12.641 3.29276 12.6624 3.32255 12.6832C3.32526 12.686 3.32796 12.6881 3.33121 12.6898C3.36479 12.7139 3.39837 12.7375 3.43249 12.7605C3.44278 12.7681 3.45361 12.7753 3.4639 12.7818C3.48989 12.7999 3.51643 12.8175 3.54243 12.8344C3.55543 12.8432 3.56896 12.852 3.58196 12.8607C3.61771 12.8837 3.65345 12.9062 3.68919 12.9287C3.69028 12.9298 3.69136 12.9303 3.69299 12.9309C3.73252 12.9555 3.7726 12.9802 3.81267 13.0037C3.81484 13.0054 3.81646 13.0065 3.81863 13.007C3.85762 13.0306 3.89716 13.0536 3.93669 13.0755C3.94049 13.0783 3.94482 13.081 3.94915 13.0832C3.98652 13.104 4.02443 13.1254 4.06288 13.1456C4.06776 13.1489 4.07263 13.1517 4.07804 13.1539C4.1192 13.1763 4.16091 13.1982 4.20315 13.2196C4.24485 13.241 4.28709 13.2623 4.32934 13.2826C4.33259 13.2843 4.33638 13.2865 4.34017 13.2881C4.37374 13.304 4.40732 13.3199 4.4409 13.3358C4.45661 13.3434 4.47285 13.3506 4.48856 13.3577C4.51726 13.3708 4.54597 13.3834 4.57467 13.396C4.58983 13.4032 4.60446 13.4097 4.61962 13.4158C4.65103 13.4295 4.68353 13.4432 4.71548 13.4563C4.72848 13.4618 4.74147 13.4673 4.75447 13.4727C4.78101 13.4832 4.80809 13.4941 4.83463 13.504C4.86333 13.516 4.89257 13.527 4.92236 13.5379C4.96623 13.5549 5.01118 13.5714 5.05559 13.5867C5.09621 13.6015 5.13682 13.6152 5.17744 13.6283C5.20235 13.6371 5.22727 13.6453 5.25272 13.653C5.28142 13.6629 5.31013 13.6716 5.33937 13.6804C5.3827 13.6941 5.42603 13.7067 5.46935 13.7193C5.51539 13.7324 5.56142 13.7451 5.60799 13.7571C5.65728 13.7703 5.7071 13.7829 5.75747 13.7949C5.8035 13.8064 5.84954 13.8168 5.89611 13.8272C5.90153 13.8283 5.90694 13.8294 5.91182 13.8305C5.95027 13.8393 5.98926 13.847 6.02826 13.8546C6.14199 13.8782 6.2568 13.8985 6.37324 13.9154C6.42469 13.9237 6.47668 13.9308 6.52867 13.9374C6.56063 13.9417 6.59258 13.9456 6.62453 13.9489C6.69873 13.9582 6.77292 13.9653 6.8482 13.9719C6.90182 13.9768 6.95543 13.9806 7.00959 13.9839C7.06375 13.9878 7.11791 13.9905 7.17261 13.9927C7.21972 13.9949 7.26684 13.9965 7.31396 13.9976C7.47751 14.0015 7.64323 14.0004 7.81112 13.9938C9.73913 13.8629 11.4012 12.961 12.5515 11.6093C13.7165 10.2418 14.3566 8.41396 14.219 6.4585ZM7.69739 11.7929C6.31908 12.0016 5.55221 10.9809 4.68515 10.1092C4.35858 9.77988 3.843 9.30211 3.42057 8.84297C3.34204 8.75804 3.26677 8.67312 3.19636 8.59039C3.04851 8.41615 2.92287 8.24959 2.83621 8.10056C1.7796 6.28591 3.50939 4.90027 4.605 3.78912C5.47206 2.90919 5.93186 2.12514 7.23705 2.03035C8.21839 1.95693 8.7096 2.44073 9.35786 3.08123C10.0034 3.71789 11.4175 5.03505 11.9011 5.72595C13.1272 7.47541 10.9143 9.15034 9.86532 10.1996C9.49813 10.5672 9.17589 10.9491 8.80004 11.2526C8.48755 11.5047 8.13878 11.703 7.69739 11.7929Z" fill="#292D32"/>
<path d="M9.1938 4.58378C8.65873 4.04026 8.08574 3.13568 7.23655 3.17677C6.43935 3.30169 5.86799 4.1482 5.33779 4.68898C4.67327 5.36619 3.1222 6.4976 3.90695 7.60656C4.20698 8.03063 4.67598 8.46731 5.11087 8.8744C5.29609 9.04754 5.47535 9.21575 5.63295 9.37464C6.17994 9.92747 6.59316 10.6408 7.41527 10.6326H7.41581C7.46347 10.6321 7.51329 10.6288 7.56366 10.6233C8.32024 10.3647 9.00696 9.41683 9.5507 8.85523C11.8481 6.48336 11.3736 6.79621 9.1938 4.58378ZM8.50167 7.47561C8.11986 7.48766 6.34891 7.52492 6.08354 7.42575C5.47806 7.19892 5.61291 6.5365 6.12578 6.32063C6.60128 6.30913 8.17185 6.25379 8.54824 6.38145C9.15914 6.5891 9.01833 7.27782 8.50167 7.47561Z" fill="#292D32"/>
<path d="M12.5514 11.6095C11.401 12.9612 9.73895 13.863 7.81095 13.994C7.64306 14.0005 7.47734 14.0016 7.31378 13.9978C7.26666 13.9967 7.21955 13.9951 7.17243 13.9929C7.11773 13.9907 7.06357 13.9879 7.00942 13.9841C6.95526 13.9808 6.90164 13.977 6.84803 13.972C6.77275 13.9655 6.69855 13.9583 6.62436 13.949C6.5924 13.9457 6.56045 13.9419 6.5285 13.9375C6.47651 13.9309 6.42452 13.9238 6.37307 13.9156C6.25663 13.8986 6.14181 13.8783 6.02808 13.8548C5.98909 13.8471 5.9501 13.8394 5.91164 13.8307C5.90677 13.8296 5.90135 13.8285 5.89594 13.8274C5.84936 13.817 5.80333 13.8066 5.7573 13.7951C5.70693 13.783 5.6571 13.7704 5.60782 13.7573C5.56124 13.7452 5.51521 13.7326 5.46918 13.7195C5.42585 13.7069 5.38252 13.6943 5.3392 13.6806C5.30995 13.6718 5.28125 13.663 5.25255 13.6532C5.22709 13.6455 5.20218 13.6373 5.17727 13.6285C5.13665 13.6154 5.09603 13.6017 5.05541 13.5869C5.011 13.5715 4.96605 13.5551 4.92219 13.5381C4.8924 13.5271 4.86315 13.5162 4.83445 13.5041C4.80791 13.4943 4.78084 13.4833 4.7543 13.4729C4.7413 13.4674 4.7283 13.4619 4.7153 13.4565C4.68335 13.4433 4.65086 13.4296 4.61945 13.4159C4.60428 13.4099 4.58966 13.4033 4.5745 13.3962C4.54579 13.3836 4.51709 13.371 4.48838 13.3578C4.47268 13.3507 4.45643 13.3436 4.44073 13.3359C4.40715 13.32 4.37357 13.3041 4.33999 13.2883C4.3362 13.2866 4.33241 13.2844 4.32916 13.2828C4.28692 13.2625 4.24468 13.2411 4.20297 13.2198C4.16073 13.1984 4.11903 13.1765 4.07787 13.154C4.07245 13.1518 4.06758 13.1491 4.06271 13.1458C4.02426 13.1255 3.98634 13.1042 3.94898 13.0833C3.94464 13.0812 3.94031 13.0784 3.93652 13.0757C3.89698 13.0538 3.85745 13.0307 3.81846 13.0072C3.81629 13.0072 3.81467 13.0055 3.8125 13.0039C3.77242 12.9803 3.73235 12.9557 3.69281 12.931C3.69119 12.9305 3.6901 12.9299 3.68902 12.9288C3.65328 12.9064 3.61753 12.8839 3.58179 12.8609C3.56879 12.8521 3.55525 12.8434 3.54225 12.8346C3.51626 12.8176 3.48972 12.8001 3.46372 12.782C3.45343 12.7754 3.4426 12.7683 3.43231 12.7606C3.39819 12.7376 3.36462 12.7141 3.33104 12.6899C3.32779 12.6883 3.32508 12.6861 3.32237 12.6834C3.29259 12.6626 3.2628 12.6412 3.23356 12.6187C3.21189 12.6034 3.19023 12.5875 3.16911 12.5705C3.15828 12.5628 3.14744 12.5546 3.13661 12.5459C3.11278 12.5283 3.0895 12.5108 3.06675 12.4922C3.0478 12.4774 3.02884 12.4626 3.00988 12.4472C2.98822 12.4302 2.9671 12.4127 2.94598 12.3946C2.91403 12.3694 2.88261 12.3431 2.8512 12.3157C2.83008 12.2982 2.8095 12.2801 2.78892 12.2626C2.76726 12.244 2.7456 12.2248 2.72447 12.2056C2.71581 12.1985 2.70769 12.1908 2.69956 12.1826C2.67465 12.1612 2.65028 12.1388 2.62591 12.1157C2.61399 12.1048 2.60208 12.0938 2.59016 12.0823C2.56363 12.0577 2.53709 12.0325 2.51109 12.0067C2.48402 11.981 2.45802 11.9552 2.43148 11.9289C2.40278 11.8999 2.37353 11.8703 2.34537 11.8407C2.31234 11.8067 2.2793 11.7722 2.24735 11.7371C2.24735 11.7371 2.24626 11.7366 2.24626 11.7361C2.22135 11.7098 2.19698 11.6829 2.17261 11.6555C2.08542 11.5591 2.00093 11.4599 1.91969 11.3585C1.89695 11.3301 1.87366 11.3016 1.85146 11.2725C1.84821 11.2687 1.8455 11.2654 1.84279 11.2616C1.81896 11.2303 1.79513 11.1997 1.7713 11.1679C1.71931 11.0988 1.6684 11.0287 1.61912 10.9575C1.60233 10.9334 1.58554 10.9093 1.5693 10.8846C1.55305 10.8616 1.53734 10.838 1.52218 10.8145C1.50052 10.7822 1.47939 10.7493 1.45827 10.7164C1.4339 10.6786 1.41007 10.6402 1.38678 10.6019C1.37 10.575 1.35375 10.5482 1.33804 10.5208C1.17611 10.2485 1.03259 9.96633 0.908574 9.67539C0.895034 9.64471 0.882036 9.61348 0.869039 9.58225C0.798092 9.41021 0.734186 9.23543 0.677321 9.05845C0.649159 8.97079 0.622622 8.88258 0.598251 8.79382C0.59771 8.79272 0.597168 8.79217 0.597168 8.79108L3.4204 8.84313C3.84283 9.30227 4.35841 9.78004 4.68498 10.1093C5.55204 10.981 6.31891 12.0018 7.69722 11.793C8.1386 11.7032 8.48738 11.5048 8.79986 11.2528C9.98808 11.6254 11.2765 11.678 12.5514 11.6095Z" fill="url(#paint0_linear_41_169)"/>
</g>
<defs>
<linearGradient id="paint0_linear_41_169" x1="0.779137" y1="11.6845" x2="10.8411" y2="10.8477" gradientUnits="userSpaceOnUse">
<stop stop-color="#1D2547"/>
<stop offset="1" stop-color="#6A3B8F"/>
</linearGradient>
<clipPath id="clip0_41_169">
<rect width="13.8963" height="14" fill="white" transform="translate(0.34082)"/>
</clipPath>
</defs>
</svg>
